<mxfile host="app.diagrams.net" modified="2023-08-20T11:58:46.833Z" agent="Mozilla/5.0 (Windows NT 10.0; Win64; x64) AppleWebKit/537.36 (KHTML, like Gecko) Chrome/115.0.0.0 Safari/537.36" etag="cPS0eRFmBHSw935cyZfK" version="21.6.8" type="github">
  <diagram name="페이지-1" id="e4SsODYzWttwS8bgY9rm">
    <mxGraphModel dx="1195" dy="625" grid="1" gridSize="10" guides="1" tooltips="1" connect="1" arrows="1" fold="1" page="1" pageScale="1" pageWidth="827" pageHeight="1169" math="0" shadow="0">
      <root>
        <mxCell id="0" />
        <mxCell id="1" parent="0" />
        <mxCell id="yz_C_leKESgGBu10cpWi-1" value="이용자" style="shape=umlActor;verticalLabelPosition=bottom;verticalAlign=top;html=1;outlineConnect=0;" vertex="1" parent="1">
          <mxGeometry x="50" y="230" width="30" height="60" as="geometry" />
        </mxCell>
        <mxCell id="yz_C_leKESgGBu10cpWi-4" value="게시판 서비스" style="shape=umlFrame;whiteSpace=wrap;html=1;pointerEvents=0;width=100;height=30;" vertex="1" parent="1">
          <mxGeometry x="120" y="80" width="600" height="560" as="geometry" />
        </mxCell>
        <mxCell id="yz_C_leKESgGBu10cpWi-16" style="rounded=0;orthogonalLoop=1;jettySize=auto;html=1;endArrow=none;endFill=0;exitX=0;exitY=0.5;exitDx=0;exitDy=0;" edge="1" parent="1" source="yz_C_leKESgGBu10cpWi-5">
          <mxGeometry relative="1" as="geometry">
            <mxPoint x="155" y="220" as="sourcePoint" />
            <mxPoint x="80" y="253.33333333333337" as="targetPoint" />
          </mxGeometry>
        </mxCell>
        <mxCell id="yz_C_leKESgGBu10cpWi-5" value="회원가입" style="rounded=1;whiteSpace=wrap;html=1;arcSize=40;fontColor=#000000;fillColor=#ffffc0;strokeColor=#ff0000;" vertex="1" parent="1">
          <mxGeometry x="140" y="240" width="120" height="40" as="geometry" />
        </mxCell>
        <mxCell id="yz_C_leKESgGBu10cpWi-19" style="rounded=0;orthogonalLoop=1;jettySize=auto;html=1;endArrow=none;endFill=0;" edge="1" parent="1" source="yz_C_leKESgGBu10cpWi-7" target="yz_C_leKESgGBu10cpWi-1">
          <mxGeometry relative="1" as="geometry" />
        </mxCell>
        <mxCell id="yz_C_leKESgGBu10cpWi-27" style="rounded=0;orthogonalLoop=1;jettySize=auto;html=1;exitX=1;exitY=0.5;exitDx=0;exitDy=0;dashed=1;" edge="1" parent="1" source="yz_C_leKESgGBu10cpWi-7" target="yz_C_leKESgGBu10cpWi-9">
          <mxGeometry relative="1" as="geometry" />
        </mxCell>
        <mxCell id="yz_C_leKESgGBu10cpWi-7" value="게시판 보기" style="rounded=1;whiteSpace=wrap;html=1;arcSize=40;fontColor=#000000;fillColor=#ffffc0;strokeColor=#ff0000;" vertex="1" parent="1">
          <mxGeometry x="140" y="310" width="120" height="40" as="geometry" />
        </mxCell>
        <mxCell id="yz_C_leKESgGBu10cpWi-20" style="rounded=0;orthogonalLoop=1;jettySize=auto;html=1;entryX=0.5;entryY=0.5;entryDx=0;entryDy=0;entryPerimeter=0;endArrow=none;endFill=0;" edge="1" parent="1" source="yz_C_leKESgGBu10cpWi-8" target="yz_C_leKESgGBu10cpWi-1">
          <mxGeometry relative="1" as="geometry" />
        </mxCell>
        <mxCell id="yz_C_leKESgGBu10cpWi-28" style="rounded=0;orthogonalLoop=1;jettySize=auto;html=1;entryX=0.411;entryY=1.049;entryDx=0;entryDy=0;entryPerimeter=0;dashed=1;exitX=1;exitY=0.5;exitDx=0;exitDy=0;" edge="1" parent="1" source="yz_C_leKESgGBu10cpWi-8" target="yz_C_leKESgGBu10cpWi-9">
          <mxGeometry relative="1" as="geometry" />
        </mxCell>
        <mxCell id="yz_C_leKESgGBu10cpWi-8" value="게시글 보기" style="rounded=1;whiteSpace=wrap;html=1;arcSize=40;fontColor=#000000;fillColor=#ffffc0;strokeColor=#ff0000;" vertex="1" parent="1">
          <mxGeometry x="140" y="380" width="120" height="40" as="geometry" />
        </mxCell>
        <mxCell id="yz_C_leKESgGBu10cpWi-18" style="rounded=0;orthogonalLoop=1;jettySize=auto;html=1;entryX=0.5;entryY=0;entryDx=0;entryDy=0;entryPerimeter=0;endArrow=none;endFill=0;exitX=0;exitY=0.5;exitDx=0;exitDy=0;" edge="1" parent="1" source="yz_C_leKESgGBu10cpWi-9">
          <mxGeometry relative="1" as="geometry">
            <mxPoint x="322.5" y="159.832131147541" as="sourcePoint" />
            <mxPoint x="77.5" y="240.16" as="targetPoint" />
          </mxGeometry>
        </mxCell>
        <mxCell id="yz_C_leKESgGBu10cpWi-23" value="" style="edgeStyle=orthogonalEdgeStyle;rounded=0;orthogonalLoop=1;jettySize=auto;html=1;endArrow=classic;endFill=1;dashed=1;" edge="1" parent="1" source="yz_C_leKESgGBu10cpWi-9" target="yz_C_leKESgGBu10cpWi-10">
          <mxGeometry relative="1" as="geometry" />
        </mxCell>
        <mxCell id="yz_C_leKESgGBu10cpWi-25" value="&amp;lt;&amp;lt;include&amp;gt;&amp;gt;" style="edgeLabel;html=1;align=center;verticalAlign=middle;resizable=0;points=[];" vertex="1" connectable="0" parent="yz_C_leKESgGBu10cpWi-23">
          <mxGeometry x="-0.4167" y="-1" relative="1" as="geometry">
            <mxPoint x="21" y="-1" as="offset" />
          </mxGeometry>
        </mxCell>
        <mxCell id="yz_C_leKESgGBu10cpWi-9" value="회원 로그인" style="rounded=1;whiteSpace=wrap;html=1;arcSize=40;fontColor=#000000;fillColor=#ffffc0;strokeColor=#ff0000;" vertex="1" parent="1">
          <mxGeometry x="310" y="110" width="120" height="40" as="geometry" />
        </mxCell>
        <mxCell id="yz_C_leKESgGBu10cpWi-10" value="인증" style="rounded=1;whiteSpace=wrap;html=1;arcSize=40;fontColor=#000000;fillColor=#ffffc0;strokeColor=#ff0000;" vertex="1" parent="1">
          <mxGeometry x="530" y="110" width="120" height="40" as="geometry" />
        </mxCell>
        <mxCell id="yz_C_leKESgGBu10cpWi-24" style="rounded=0;orthogonalLoop=1;jettySize=auto;html=1;entryX=1;entryY=1;entryDx=0;entryDy=0;endArrow=classic;endFill=1;exitX=0;exitY=0.5;exitDx=0;exitDy=0;dashed=1;" edge="1" parent="1" source="yz_C_leKESgGBu10cpWi-11">
          <mxGeometry relative="1" as="geometry">
            <mxPoint x="490" y="160" as="sourcePoint" />
            <mxPoint x="430" y="130" as="targetPoint" />
          </mxGeometry>
        </mxCell>
        <mxCell id="yz_C_leKESgGBu10cpWi-26" value="&amp;lt;&amp;lt;extend&amp;gt;&amp;gt;" style="edgeLabel;html=1;align=center;verticalAlign=middle;resizable=0;points=[];" vertex="1" connectable="0" parent="yz_C_leKESgGBu10cpWi-24">
          <mxGeometry x="-0.0974" relative="1" as="geometry">
            <mxPoint as="offset" />
          </mxGeometry>
        </mxCell>
        <mxCell id="yz_C_leKESgGBu10cpWi-11" value="로그인 실패" style="rounded=1;whiteSpace=wrap;html=1;arcSize=40;fontColor=#000000;fillColor=#ffffc0;strokeColor=#ff0000;" vertex="1" parent="1">
          <mxGeometry x="530" y="180" width="120" height="40" as="geometry" />
        </mxCell>
        <mxCell id="yz_C_leKESgGBu10cpWi-29" style="rounded=0;orthogonalLoop=1;jettySize=auto;html=1;entryX=1;entryY=0.5;entryDx=0;entryDy=0;dashed=1;" edge="1" parent="1" source="yz_C_leKESgGBu10cpWi-12" target="yz_C_leKESgGBu10cpWi-7">
          <mxGeometry relative="1" as="geometry" />
        </mxCell>
        <mxCell id="yz_C_leKESgGBu10cpWi-12" value="게시판 정렬" style="rounded=1;whiteSpace=wrap;html=1;arcSize=40;fontColor=#000000;fillColor=#ffffc0;strokeColor=#ff0000;" vertex="1" parent="1">
          <mxGeometry x="330" y="285" width="120" height="40" as="geometry" />
        </mxCell>
        <mxCell id="yz_C_leKESgGBu10cpWi-30" style="rounded=0;orthogonalLoop=1;jettySize=auto;html=1;entryX=1;entryY=0.5;entryDx=0;entryDy=0;dashed=1;" edge="1" parent="1" source="yz_C_leKESgGBu10cpWi-13" target="yz_C_leKESgGBu10cpWi-7">
          <mxGeometry relative="1" as="geometry" />
        </mxCell>
        <mxCell id="yz_C_leKESgGBu10cpWi-13" value="게시판 검색" style="rounded=1;whiteSpace=wrap;html=1;arcSize=40;fontColor=#000000;fillColor=#ffffc0;strokeColor=#ff0000;" vertex="1" parent="1">
          <mxGeometry x="330" y="335" width="120" height="40" as="geometry" />
        </mxCell>
        <mxCell id="yz_C_leKESgGBu10cpWi-31" style="edgeStyle=orthogonalEdgeStyle;rounded=0;orthogonalLoop=1;jettySize=auto;html=1;entryX=1;entryY=0.5;entryDx=0;entryDy=0;dashed=1;" edge="1" parent="1" source="yz_C_leKESgGBu10cpWi-14" target="yz_C_leKESgGBu10cpWi-8">
          <mxGeometry relative="1" as="geometry" />
        </mxCell>
        <mxCell id="yz_C_leKESgGBu10cpWi-14" value="게시글 쓰기, 수정, 삭제" style="rounded=1;whiteSpace=wrap;html=1;arcSize=40;fontColor=#000000;fillColor=#ffffc0;strokeColor=#ff0000;" vertex="1" parent="1">
          <mxGeometry x="330" y="380" width="120" height="40" as="geometry" />
        </mxCell>
        <mxCell id="yz_C_leKESgGBu10cpWi-32" style="rounded=0;orthogonalLoop=1;jettySize=auto;html=1;entryX=1;entryY=0.5;entryDx=0;entryDy=0;dashed=1;" edge="1" parent="1" source="yz_C_leKESgGBu10cpWi-15" target="yz_C_leKESgGBu10cpWi-8">
          <mxGeometry relative="1" as="geometry" />
        </mxCell>
        <mxCell id="yz_C_leKESgGBu10cpWi-15" value="댓글 보기, 쓰기, 수정, 삭제" style="rounded=1;whiteSpace=wrap;html=1;arcSize=40;fontColor=#000000;fillColor=#ffffc0;strokeColor=#ff0000;" vertex="1" parent="1">
          <mxGeometry x="330" y="430" width="120" height="40" as="geometry" />
        </mxCell>
      </root>
    </mxGraphModel>
  </diagram>
</mxfile>
